<?xml version="1.0" encoding="UTF-8" standalone="no"?>
<svg
   height="127"
   width="128"
   version="1.1"
   id="svg2"
   sodipodi:docname="CVL-bg-r.svg"
   inkscape:version="1.2.1 (9c6d41e410, 2022-07-14)"
   xmlns:inkscape="http://www.inkscape.org/namespaces/inkscape"
   xmlns:sodipodi="http://sodipodi.sourceforge.net/DTD/sodipodi-0.dtd"
   xmlns="http://www.w3.org/2000/svg"
   xmlns:svg="http://www.w3.org/2000/svg"
   xmlns:rdf="http://www.w3.org/1999/02/22-rdf-syntax-ns#"
   xmlns:cc="http://creativecommons.org/ns#"
   xmlns:dc="http://purl.org/dc/elements/1.1/">
  <sodipodi:namedview
     pagecolor="#ffffff"
     bordercolor="#666666"
     borderopacity="1"
     objecttolerance="10"
     gridtolerance="10"
     guidetolerance="10"
     inkscape:pageopacity="0"
     inkscape:pageshadow="2"
     inkscape:window-width="1920"
     inkscape:window-height="1020"
     id="namedview66"
     showgrid="false"
     fit-margin-top="0"
     fit-margin-left="0"
     fit-margin-right="0"
     fit-margin-bottom="0"
     inkscape:zoom="2.8878392"
     inkscape:cx="116.52311"
     inkscape:cy="61.291501"
     inkscape:window-x="1920"
     inkscape:window-y="0"
     inkscape:window-maximized="1"
     inkscape:current-layer="layer2"
     inkscape:showpageshadow="0"
     inkscape:pagecheckerboard="0"
     inkscape:deskcolor="#d1d1d1" />
  <metadata
     id="metadata8">
    <rdf:RDF>
      <cc:Work
         rdf:about="">
        <dc:format>image/svg+xml</dc:format>
        <dc:type
           rdf:resource="http://purl.org/dc/dcmitype/StillImage" />
        <cc:license
           rdf:resource="http://creativecommons.org/licenses/by/4.0/" />
      </cc:Work>
      <cc:License
         rdf:about="http://creativecommons.org/licenses/by/4.0/">
        <cc:permits
           rdf:resource="http://creativecommons.org/ns#Reproduction" />
        <cc:permits
           rdf:resource="http://creativecommons.org/ns#Distribution" />
        <cc:requires
           rdf:resource="http://creativecommons.org/ns#Notice" />
        <cc:requires
           rdf:resource="http://creativecommons.org/ns#Attribution" />
        <cc:permits
           rdf:resource="http://creativecommons.org/ns#DerivativeWorks" />
      </cc:License>
    </rdf:RDF>
  </metadata>
  <defs
     id="defs5288" />
  <g
     inkscape:groupmode="layer"
     id="layer2"
     inkscape:label="Layer 2">
    <path
       d="M 127.22144,63.559849 V -2.5941e-6 h 0.77857 V 63.559849 Z m -3.18069,0 V -2.5941e-6 h 0.77856 V 63.559849 Z m -3.17446,0 V -2.5941e-6 h 0.77856 V 63.559849 Z m -3.18173,0 V -2.5941e-6 h 0.77856 V 63.559849 Z m -3.17343,0 V -2.5941e-6 h 0.77857 V 63.559849 Z m -3.18173,0 V -2.5941e-6 h 0.77857 V 63.559849 Z m -3.17446,0 V -2.5941e-6 h 0.77856 V 63.559849 Z m -3.18069,0 V -2.5941e-6 h 0.77856 V 63.559849 Z m -3.17447,0 V -2.5941e-6 h 0.77857 V 63.559849 Z m -3.174458,0 V -2.5941e-6 h 0.778563 V 63.559849 Z m -3.180692,0 V -2.5941e-6 h 0.778564 V 63.559849 Z m -3.174463,0 V -2.5941e-6 h 0.778564 V 63.559849 Z m -3.180692,0 V -2.5941e-6 h 0.778564 V 63.559849 Z m -3.140206,0 V -2.5941e-6 h 0.778564 V 63.559849 Z m -3.180692,0 V -2.5941e-6 h 0.778564 V 63.559849 Z m -3.174463,0 V -2.5941e-6 h 0.778564 V 63.559849 Z m -3.201453,0 V -2.5941e-6 h 0.778564 V 63.559849 Z m -3.18173,0 V -2.5941e-6 h 0.778564 V 63.559849 Z m -3.174463,0 V -2.5941e-6 h 0.778564 V 63.559849 Z m -3.201453,0 V -2.5941e-6 h 0.778563 V 63.559849 Z m -3.173425,0 V -2.5941e-6 h 0.778563 V 63.559849 H 63.66159"
       style="fill:#e31b17;fill-opacity:1;fill-rule:nonzero;stroke:none;stroke-width:1.03808"
       id="path344" />
    <path
       d="M 64.358145,63.548431 H 127.63979 V 126.83008 H 64.358145 Z"
       style="fill:#e31b17;fill-opacity:1;fill-rule:evenodd;stroke:none;stroke-width:1.03808"
       id="path348" />
    <path
       d="M 1.0380902,63.076102 V 126.63595 H 5.4319e-6 V 63.076102 H 1.0380902"
       style="fill:#000000;fill-opacity:1;fill-rule:nonzero;stroke:none;stroke-width:1.03808"
       id="path480" />
    <path
       d="M 16.74535,63.076102 V 126.63595 H 15.707266 V 63.076102 h 1.038084"
       style="fill:#000000;fill-opacity:1;fill-rule:nonzero;stroke:none;stroke-width:1.03808"
       id="path484" />
    <path
       d="M 33.183422,63.076102 V 126.63595 H 32.145337 V 63.076102 h 1.038085"
       style="fill:#000000;fill-opacity:1;fill-rule:nonzero;stroke:none;stroke-width:1.03808"
       id="path488" />
    <path
       d="M 48.89172,63.076102 V 126.63595 H 47.853635 V 63.076102 h 1.038085"
       style="fill:#000000;fill-opacity:1;fill-rule:nonzero;stroke:none;stroke-width:1.03808"
       id="path492" />
  </g>
</svg>
